<?xml version="1.0" encoding="UTF-8" standalone="no"?>
<!DOCTYPE svg PUBLIC "-//W3C//DTD SVG 1.1//EN" "http://www.w3.org/Graphics/SVG/1.1/DTD/svg11.dtd">
<svg width="48px" height="48px" viewBox="0 0 1182 273" version="1.1" xmlns="http://www.w3.org/2000/svg" xmlns:xlink="http://www.w3.org/1999/xlink" xml:space="preserve" xmlns:serif="http://www.serif.com/" style="fill-rule:evenodd;clip-rule:evenodd;stroke-linejoin:round;stroke-miterlimit:2;">
    <g transform="matrix(1,0,0,1,-159.447,-613.806)">
        <g transform="matrix(4.16667,0,0,4.16667,0,0)">
            <g transform="matrix(1,0,0,1,278.714,163.938)">
                <path d="M0,32.123C0.375,41.797 8.641,48.654 22.447,48.654C33.719,48.654 43.018,43.77 43.018,32.968C43.018,25.454 38.791,21.04 29.022,19.162L21.415,17.659C16.53,16.719 13.149,15.78 13.149,12.868C13.149,9.675 16.437,8.266 20.569,8.266C26.581,8.266 29.022,11.271 29.211,14.841L41.233,14.841C40.576,5.448 33.062,-0.845 20.945,-0.845C8.452,-0.845 1.033,6.012 1.033,14.935C1.033,25.83 9.862,27.614 17.47,29.023L23.763,30.151C28.271,30.996 30.244,32.31 30.244,34.941C30.244,37.289 27.99,39.637 22.636,39.637C14.84,39.637 12.304,35.598 12.21,32.123L0,32.123ZM-43.675,23.951C-43.675,16.344 -37.57,10.238 -29.962,10.238C-22.354,10.238 -16.249,16.344 -16.249,23.951C-16.249,31.56 -22.354,37.665 -29.962,37.665C-37.57,37.665 -43.675,31.56 -43.675,23.951M-16.343,47.715L-4.414,47.715L-4.414,-0.282L-16.343,-0.282L-16.343,3.569C-20.381,0.751 -25.266,-0.845 -30.525,-0.845C-44.239,-0.845 -55.322,10.238 -55.322,23.951C-55.322,37.759 -44.239,48.748 -30.525,48.748C-25.266,48.748 -20.381,47.152 -16.343,44.334L-16.343,47.715ZM-99.466,23.951C-99.466,16.344 -93.361,10.238 -85.753,10.238C-78.145,10.238 -72.04,16.344 -72.04,23.951C-72.04,31.56 -78.145,37.665 -85.753,37.665C-93.361,37.665 -99.466,31.56 -99.466,23.951M-72.133,-16.625L-72.133,3.569C-76.172,0.751 -81.057,-0.845 -86.317,-0.845C-100.03,-0.845 -111.113,10.238 -111.113,23.951C-111.113,37.759 -100.03,48.748 -86.317,48.748C-81.057,48.748 -76.172,47.152 -72.133,44.334L-72.133,47.715L-60.205,47.715L-60.205,-16.625L-72.133,-16.625ZM-115.997,-0.282L-127.925,-0.282L-127.925,47.715L-115.997,47.715L-115.997,-0.282ZM-115.997,-16.625L-127.925,-16.625L-127.925,-4.697L-115.997,-4.697L-115.997,-16.625ZM-173.008,23.951C-173.008,16.344 -166.903,10.238 -159.295,10.238C-151.687,10.238 -145.582,16.344 -145.582,23.951C-145.582,31.56 -151.687,37.665 -159.295,37.665C-166.903,37.665 -173.008,31.56 -173.008,23.951M-145.676,-16.625L-145.676,3.569C-149.714,0.751 -154.599,-0.845 -159.858,-0.845C-173.572,-0.845 -184.655,10.238 -184.655,23.951C-184.655,37.759 -173.572,48.748 -159.858,48.748C-154.599,48.748 -149.714,47.152 -145.676,44.334L-145.676,47.715L-133.747,47.715L-133.747,-16.625L-145.676,-16.625ZM-228.8,23.951C-228.8,16.344 -222.694,10.238 -215.086,10.238C-207.478,10.238 -201.373,16.344 -201.373,23.951C-201.373,31.56 -207.478,37.665 -215.086,37.665C-222.694,37.665 -228.8,31.56 -228.8,23.951M-201.467,47.715L-189.538,47.715L-189.538,-0.282L-201.467,-0.282L-201.467,3.569C-205.506,0.751 -210.39,-0.845 -215.65,-0.845C-229.363,-0.845 -240.447,10.238 -240.447,23.951C-240.447,37.759 -229.363,48.748 -215.65,48.748C-210.39,48.748 -205.506,47.152 -201.467,44.334L-201.467,47.715Z" style="fill:black;fill-rule:nonzero;"/>
            </g>
        </g>
    </g>
</svg>
