<?xml version="1.0" encoding="UTF-8" standalone="no"?>
<!DOCTYPE svg PUBLIC "-//W3C//DTD SVG 1.1//EN" "http://www.w3.org/Graphics/SVG/1.1/DTD/svg11.dtd">
<svg width="100%" height="100%" viewBox="0 0 172 172" version="1.1" xmlns="http://www.w3.org/2000/svg" xmlns:xlink="http://www.w3.org/1999/xlink" xml:space="preserve" xmlns:serif="http://www.serif.com/" style="fill-rule:evenodd;clip-rule:evenodd;stroke-linejoin:round;stroke-miterlimit:2;">
    <g transform="matrix(1,0,0,1,-3097.4,-567.373)">
        <g transform="matrix(1,0,0,1.29321,2223,1)">
            <g transform="matrix(1.74668,0.55984,-0.723991,1.35065,-4496.33,-2093.02)">
                <path d="M3346,487L3380.65,501.352L3395,536L3380.65,570.648L3346,585L3311.35,570.648L3297,536L3311.35,501.352L3346,487Z"/>
                <path d="M3346,487L3380.65,501.352L3395,536L3380.65,570.648L3346,585L3311.35,570.648L3297,536L3311.35,501.352L3346,487ZM3302.72,536L3315.4,566.6L3346,579.275L3376.6,566.6L3389.28,536L3376.6,505.4L3346,492.725L3315.4,505.4L3302.72,536Z" style="fill:rgb(239,59,59);"/>
            </g>
        </g>
        <g transform="matrix(1,0,0,1.29321,2223,1)">
            <g transform="matrix(1,1.38006e-32,0,0.77327,-1697.5,-163.16)">
                <text x="2634.24px" y="846.627px" style="font-family:'AdihausDIN-Bold', 'AdihausDIN', sans-serif;font-weight:700;font-size:25px;fill:white;">THE</text>
                <text x="2612.06px" y="871.877px" style="font-family:'AdihausDIN-Bold', 'AdihausDIN', sans-serif;font-weight:700;font-size:25px;fill:white;">RA<tspan x="2644.11px 2659.61px " y="871.877px 871.877px ">CE</tspan> IS</text>
                <text x="2626.58px" y="897.127px" style="font-family:'AdihausDIN-Bold', 'AdihausDIN', sans-serif;font-weight:700;font-size:25px;fill:white;">O<tspan x="2642.43px 2656.95px " y="897.127px 897.127px ">VE</tspan>R</text>
            </g>
        </g>
    </g>
</svg>
