<?xml version="1.0" encoding="UTF-8" standalone="no"?>
<!DOCTYPE svg PUBLIC "-//W3C//DTD SVG 1.1//EN" "http://www.w3.org/Graphics/SVG/1.1/DTD/svg11.dtd">
<svg width="100%" height="100%" viewBox="0 0 1920 69" version="1.1" xmlns="http://www.w3.org/2000/svg" xmlns:xlink="http://www.w3.org/1999/xlink" xml:space="preserve" xmlns:serif="http://www.serif.com/" style="fill-rule:evenodd;clip-rule:evenodd;stroke-linejoin:round;stroke-miterlimit:2;">
    <g transform="matrix(1,0,0,1,-4446,-618.827)">
        <g transform="matrix(1,0,0,1.29321,4446,1)">
            <g transform="matrix(1,1.38006e-32,0,0.77327,-1697.5,-163.16)">
                <text x="2634.24px" y="846.627px" style="font-family:'AdihausDIN-Bold', 'AdihausDIN', sans-serif;font-weight:700;font-size:25px;fill:white;">THE</text>
                <text x="2626.16px" y="871.877px" style="font-family:'AdihausDIN-Bold', 'AdihausDIN', sans-serif;font-weight:700;font-size:25px;fill:white;">RA<tspan x="2658.21px 2673.71px " y="871.877px 871.877px ">CE</tspan></text>
                <text x="2612.47px" y="897.127px" style="font-family:'AdihausDIN-Bold', 'AdihausDIN', sans-serif;font-weight:700;font-size:25px;fill:white;">IS O<tspan x="2656.53px 2671.05px " y="897.127px 897.127px ">VE</tspan>R</text>
            </g>
        </g>
        <g transform="matrix(1,0,0,1.29321,4446,1)">
            <g transform="matrix(15.8646,0,0,0.862196,-83923.6,-56.8663)">
                <rect x="5290" y="626" width="55" height="10" style="fill:rgb(248,56,56);"/>
            </g>
        </g>
        <g transform="matrix(1,0,0,1.29321,4446,1)">
            <g transform="matrix(15.8646,0,0,0.862196,-83923.6,-39.6223)">
                <rect x="5290" y="626" width="55" height="10" style="fill:rgb(248,56,56);"/>
            </g>
        </g>
        <g transform="matrix(1,0,0,1.29321,4446,1)">
            <g transform="matrix(15.8646,0,0,0.862196,-83923.6,-22.3784)">
                <rect x="5290" y="626" width="55" height="10" style="fill:rgb(248,56,56);"/>
            </g>
        </g>
        <g transform="matrix(1,0,0,1.29321,4446,1)">
            <g transform="matrix(15.8646,0,0,0.862196,-82876.1,-56.8663)">
                <rect x="5290" y="626" width="55" height="10" style="fill:rgb(248,56,56);"/>
            </g>
        </g>
        <g transform="matrix(1,0,0,1.29321,4446,1)">
            <g transform="matrix(15.8646,0,0,0.862196,-82876.1,-39.6223)">
                <rect x="5290" y="626" width="55" height="10" style="fill:rgb(248,56,56);"/>
            </g>
        </g>
        <g transform="matrix(1,0,0,1.29321,4446,1)">
            <g transform="matrix(15.8646,0,0,0.862196,-82876.1,-22.3784)">
                <rect x="5290" y="626" width="55" height="10" style="fill:rgb(248,56,56);"/>
            </g>
        </g>
    </g>
</svg>
