<?xml version="1.0" encoding="UTF-8" standalone="no"?>
<!DOCTYPE svg PUBLIC "-//W3C//DTD SVG 1.1//EN" "http://www.w3.org/Graphics/SVG/1.1/DTD/svg11.dtd">
<svg width="100%" height="100%" viewBox="-895 0 2033 3117" version="1.1" xmlns="http://www.w3.org/2000/svg" xmlns:xlink="http://www.w3.org/1999/xlink" xml:space="preserve" xmlns:serif="http://www.serif.com/" style="fill-rule:evenodd;clip-rule:evenodd;stroke-linecap:round;stroke-linejoin:round;stroke-miterlimit:1.5;">
    <style>
        .track-line {
            fill: none;
            stroke: rgb(128,128,128);
            stroke-width: 0.65px;
        }

        .track-line.track-line--thick {
            stroke-width: 7px;
        }
    </style>

    <defs>
        <linearGradient id="top" x1="0" y1="1" x2="0" y2="0"><stop offset="0" style="stop-color:black;stop-opacity:0"/><stop offset="1" style="stop-color:black;stop-opacity:1"/></linearGradient>
        <linearGradient id="bottom" x1="0" y1="0" x2="0" y2="1"><stop offset="0" style="stop-color:black;stop-opacity:0"/><stop offset="1" style="stop-color:black;stop-opacity:1"/></linearGradient>
    </defs>

    <!-- Track field -->
    <g transform="matrix(1,0,0,1,-3061.87,-535.875)">
        <g transform="matrix(1,0,0,1.29321,2223,0)">
            <g transform="matrix(3.21591,0,0,2.48677,325.432,-3895.26)">
                <g transform="matrix(0.324295,0,0,0.251823,160.629,1734)">
                    <path class="track-line track-line--thick" d="M2061,1311.67C2061,587.738 1604.61,0 1042.46,0L1018.54,0C456.394,0 0,587.738 0,1311.67L0,2528.33C0,3252.26 456.394,3840 1018.54,3840L1042.46,3840C1604.61,3840 2061,3252.26 2061,2528.33L2061,1311.67Z" />
                </g>
                <g transform="matrix(0.315201,0,0,0.247135,170,1743)">
                    <path class="track-line track-line--thick" d="M2061,1299.07C2061,582.092 1604.61,0 1042.46,0L1018.54,0C456.394,0 0,582.092 0,1299.07L0,2540.93C0,3257.91 456.394,3840 1018.54,3840L1042.46,3840C1604.61,3840 2061,3257.91 2061,2540.93L2061,1299.07Z" />
                </g>
                <g transform="matrix(0.306467,0,0,0.242448,179,1752)">
                    <path class="track-line track-line--thick" d="M2061,1287.49C2061,576.906 1604.61,0 1042.46,0L1018.54,0C456.394,0 0,576.906 0,1287.49L0,2552.51C0,3263.09 456.394,3840 1018.54,3840L1042.46,3840C1604.61,3840 2061,3263.09 2061,2552.51L2061,1287.49Z" />
                </g>
                <g transform="matrix(0.297734,0,0,0.23776,188,1761)">
                    <path class="track-line track-line--thick" d="M2061,1275.46C2061,571.515 1604.61,0 1042.46,0L1018.54,0C456.394,0 0,571.515 0,1275.46L0,2564.54C0,3268.49 456.394,3840 1018.54,3840L1042.46,3840C1604.61,3840 2061,3268.49 2061,2564.54L2061,1275.46Z" />
                </g>
                <g transform="matrix(0.289,0,0,0.233073,197,1770)">
                    <path class="track-line track-line--thick" d="M2061,1262.95C2061,565.908 1604.61,0 1042.46,0L1018.54,0C456.394,0 0,565.908 0,1262.95L0,2577.05C0,3274.09 456.394,3840 1018.54,3840L1042.46,3840C1604.61,3840 2061,3274.09 2061,2577.05L2061,1262.95Z" />
                </g>
                <g transform="matrix(0.279296,0,0,0.228385,207,1779)">
                    <path class="track-line track-line--thick" d="M2061,1245.59C2061,558.13 1604.61,0 1042.46,0L1018.54,0C456.394,0 0,558.13 0,1245.59L0,2594.41C0,3281.87 456.394,3840 1018.54,3840L1042.46,3840C1604.61,3840 2061,3281.87 2061,2594.41L2061,1245.59Z" />
                </g>
                <g transform="matrix(0.270562,0,0,0.223698,216,1788)">
                    <path class="track-line track-line--thick" d="M2061,1231.93C2061,552.007 1604.61,0 1042.46,0L1018.54,0C456.394,0 0,552.007 0,1231.93L0,2608.07C0,3287.99 456.394,3840 1018.54,3840L1042.46,3840C1604.61,3840 2061,3287.99 2061,2608.07L2061,1231.93Z" />
                </g>
                <g transform="matrix(0.261829,0,0,0.21901,225,1797)">
                    <path class="track-line track-line--thick" d="M2061,1217.68C2061,545.622 1604.61,0 1042.46,0L1018.54,0C456.394,0 0,545.622 0,1217.68L0,2622.32C0,3294.38 456.394,3840 1018.54,3840L1042.46,3840C1604.61,3840 2061,3294.38 2061,2622.32L2061,1217.68Z" />
                </g>
                <g transform="matrix(0.253095,0,0,0.214323,234,1806)">
                    <path class="track-line track-line--thick" d="M2061,1202.8C2061,538.958 1604.61,0 1042.46,0L1018.54,0C456.394,0 0,538.958 0,1202.8L0,2637.2C0,3301.04 456.394,3840 1018.54,3840L1042.46,3840C1604.61,3840 2061,3301.04 2061,2637.2L2061,1202.8Z" />
                </g>
            </g>
        </g>

        <!-- Straight track end -->
        <g transform="matrix(1,0,0,1.29321,2223,0)">
            <g transform="matrix(-3.21591,3.04541e-16,-3.93835e-16,-2.48677,1593.89,7133.71)">
                <rect class="track-line" x="160" y="1734" width="73" height="333" />
                <path class="track-line" d="M170,1734L170,2067" />
                <g transform="matrix(1,0,0,1,9,0)">
                    <path class="track-line" d="M170,1734L170,2067" />
                </g>
                <g transform="matrix(1,0,0,1,18,0)">
                    <path class="track-line" d="M170,1734L170,2067" />
                </g>
                <g transform="matrix(1,0,0,1,27,0)">
                    <path class="track-line" d="M170,1734L170,2067" />
                </g>
                <g transform="matrix(1,0,0,1,37,0)">
                    <path class="track-line" d="M170,1734L170,2067" />
                </g>
                <g transform="matrix(1,0,0,1,46,0)">
                    <path class="track-line" d="M170,1734L170,2067" />
                </g>
                <g transform="matrix(1,0,0,1,55,0)">
                    <path class="track-line" d="M170,1734L170,2067" />
                </g>
                <g transform="matrix(1,0,0,1,-595.952,-258.195)">
                    <path class="track-line" d="M755.629,2067.2L829,2067.2" />
                </g>
            </g>
        </g>

        <!-- Straight track start -->
        <g transform="matrix(1,0,0,1.29321,2223,0)">
            <g transform="matrix(3.21591,0,0,2.48677,327.715,-3895.26)">
                <rect class="track-line" x="160" y="1734" width="73" height="333" />
                <path class="track-line" d="M170,1734L170,2067" />
                <g transform="matrix(1,0,0,1,9,0)">
                    <path class="track-line" d="M170,1734L170,2067" />
                </g>
                <g transform="matrix(1,0,0,1,18,0)">
                    <path class="track-line" d="M170,1734L170,2067" />
                </g>
                <g transform="matrix(1,0,0,1,27,0)">
                    <path class="track-line" d="M170,1734L170,2067" />
                </g>
                <g transform="matrix(1,0,0,1,37,0)">
                    <path class="track-line" d="M170,1734L170,2067" />
                </g>
                <g transform="matrix(1,0,0,1,46,0)">
                    <path class="track-line" d="M170,1734L170,2067" />
                </g>
                <g transform="matrix(1,0,0,1,55,0)">
                    <path class="track-line" d="M170,1734L170,2067" />
                </g>
                <g transform="matrix(1,0,0,1,-595.952,-258.195)">
                    <path class="track-line" d="M755.629,2067.2L829,2067.2" />
                </g>
            </g>
        </g>

        <!-- Escalonated track guides -->
        <g transform="matrix(1,0,0,1.29321,2223,0)">
            <g transform="matrix(3.21591,0,0,2.48677,329.717,-3895.26)">
                <g transform="matrix(1,0,0,1,-1.26951,-0.317377)">
                    <path class="track-line" d="M235,1992L243.556,1994.63" />
                </g>
                <g transform="matrix(1,0,0,1,-16.8986,26)">
                    <path class="track-line" d="M235.227,1992.05L244,1994" />
                </g>
                <g transform="matrix(1,0,0,1,-27.3118,54)">
                    <path class="track-line" d="M233.263,1993.57L242.467,1994" />
                </g>
                <g transform="matrix(1.27011,0,0,1,-101.556,83)">
                    <path class="track-line" d="M235,1994L242.111,1994" />
                </g>
                <g transform="matrix(1,0,0,1,-47.5756,112)">
                    <path class="track-line" d="M235,1994L243,1994" />
                </g>
                <g transform="matrix(1,0,0,1,-56.2583,141)">
                    <path class="track-line" d="M235,1994L243,1994" />
                </g>
                <g transform="matrix(1,0,0,1,-65.2583,169)">
                    <path class="track-line" d="M235,1994L243,1994" />
                </g>
                <g transform="matrix(1,0,0,1,-74.9467,213)">
                    <path class="track-line" d="M235,1994L243,1994" />
                </g>
            </g>
        </g>

        <!-- Gradients -->
        <g>
          <rect x="2000" y="535" width="2800" height="688" style="fill:url(#top);"/>
          <rect x="2000" y="2965" width="3000" height="688" style="fill:url(#bottom);"/>
        </g>
    </g>
</svg>
